<?xml version="1.0" encoding="utf-8"?>
<!-- Generator: Adobe Illustrator 17.0.0, SVG Export Plug-In . SVG Version: 6.00 Build 0)  -->
<!DOCTYPE svg PUBLIC "-//W3C//DTD SVG 1.1//EN" "http://www.w3.org/Graphics/SVG/1.1/DTD/svg11.dtd">
<svg xmlns="http://www.w3.org/2000/svg" xmlns:xlink="http://www.w3.org/1999/xlink" version="1.1" id="Capa_1" x="0px" y="0px" width="484.342px" height="448.988px" viewBox="-9 8.678 484.342 448.988" xml:space="preserve">
<path d="M431.839,54.197c-28.153-29.354-65.558-45.52-105.322-45.52c-34.052,0-66.895,12.106-93.344,34.25  c-26.449-22.143-59.292-34.25-93.344-34.25C57.764,8.678-9,78.116-9,163.468c0,21.104,3.439,42.499,10.225,63.599  c0.585,1.812,5.848,17.927,11.149,28.29c23.788,50.934,66.577,100.082,127.18,146.079c44.905,34.082,82.342,53.12,83.903,53.908  c2.997,1.519,6.356,2.321,9.715,2.321c3.365,0,6.727-0.804,9.704-2.316c1.572-0.794,39.019-19.837,83.913-53.913  c60.766-46.122,103.619-95.407,127.328-146.401c0.063-0.132,0.126-0.27,0.147-0.319c0.305-0.676,7.503-16.686,10.955-27.974  c6.812-22.282,10.123-42.98,10.123-63.275C475.343,122.255,459.893,83.449,431.839,54.197z M42.151,213.877  C36.742,197.061,34,180.101,34,163.469c0-61.641,47.474-111.79,105.828-111.79c29.147,0,57.306,12.907,77.256,35.411  c4.078,4.599,9.942,7.237,16.088,7.237c6.144,0,12.007-2.637,16.088-7.237c20.245-22.835,47.682-35.411,77.256-35.411  c58.354,0,105.828,50.149,105.828,111.79c0,15.972-2.697,32.556-8.244,50.702c-2.03,6.641-6.595,17.413-8.993,22.78  c-25.823,55.438-76.207,101.262-113.935,129.945c-28.748,21.856-54.847,37.405-68.001,44.809c-13.152-7.402-39.248-22.948-68-44.808  c-37.762-28.711-88.192-74.584-113.996-130.078c-0.131-0.282-0.269-0.562-0.422-0.857C47.943,230.562,43.983,219.541,42.151,213.877  z"/>
</svg>
