<?xml version="1.0" encoding="utf-8"?>
<!-- Generator: Adobe Illustrator 17.0.0, SVG Export Plug-In . SVG Version: 6.00 Build 0)  -->
<!DOCTYPE svg PUBLIC "-//W3C//DTD SVG 1.1//EN" "http://www.w3.org/Graphics/SVG/1.1/DTD/svg11.dtd">
<svg version="1.1" id="Layer_1" xmlns="http://www.w3.org/2000/svg" xmlns:xlink="http://www.w3.org/1999/xlink" x="0px" y="0px"
	 width="100px" height="100px" viewBox="0 0 100 100" enable-background="new 0 0 100 100" xml:space="preserve">
<path fill="#FFFFFF" d="M90.608,13.418c-5.755-6-13.4-9.304-21.528-9.304c-6.96,0-13.673,2.474-19.08,7.001
	c-5.406-4.526-12.119-7.001-19.08-7.001C14.147,4.113,0.5,18.307,0.5,35.753c0,4.314,0.703,8.687,2.09,13
	c0.12,0.37,1.195,3.664,2.279,5.783c4.862,10.411,13.608,20.457,25.996,29.859c9.179,6.966,16.831,10.858,17.15,11.019
	c0.613,0.31,1.299,0.474,1.986,0.474c0.688,0,1.375-0.164,1.984-0.473c0.321-0.162,7.976-4.055,17.152-11.02
	c12.421-9.427,21.18-19.501,26.026-29.925c0.013-0.027,0.026-0.055,0.03-0.065c0.062-0.138,1.534-3.411,2.239-5.718
	c1.392-4.554,2.069-8.785,2.069-12.933C99.5,27.329,96.342,19.397,90.608,13.418z"/>
<g>
</g>
<g>
</g>
<g>
</g>
<g>
</g>
<g>
</g>
<g>
</g>
<g>
</g>
<g>
</g>
<g>
</g>
<g>
</g>
<g>
</g>
<g>
</g>
<g>
</g>
<g>
</g>
<g>
</g>
</svg>
