<?xml version="1.0" encoding="utf-8"?>
<!-- Generator: Adobe Illustrator 17.0.0, SVG Export Plug-In . SVG Version: 6.00 Build 0)  -->
<!DOCTYPE svg PUBLIC "-//W3C//DTD SVG 1.1//EN" "http://www.w3.org/Graphics/SVG/1.1/DTD/svg11.dtd">
<svg version="1.1" id="Layer_1" xmlns="http://www.w3.org/2000/svg" xmlns:xlink="http://www.w3.org/1999/xlink" x="0px" y="0px"
	 width="100px" height="100px" viewBox="0 0 100 100" enable-background="new 0 0 100 100" xml:space="preserve">
<path fill="#FFFFFF" d="M36.994,49.998c0,1.627-0.288,3.172-0.689,4.668L66.94,70.333c3.303-4.182,8.359-6.912,14.09-6.912
	c9.976,0,18.046,8.07,18.042,18.042c0,9.963-8.07,18.037-18.046,18.037c-9.954,0-18.033-8.075-18.033-18.037
	c0-1.775,0.347-3.456,0.825-5.074L33.33,60.794c-3.298,4.375-8.48,7.241-14.378,7.241c-9.967,0-18.033-8.075-18.033-18.037
	c0-9.963,8.066-18.042,18.033-18.042c5.741,0,10.805,2.74,14.113,6.926l30.631-15.667c-0.406-1.501-0.694-3.051-0.694-4.682
	c0-9.958,8.079-18.033,18.033-18.033c9.976,0,18.046,8.075,18.046,18.033c0,9.967-8.07,18.037-18.046,18.037
	c-5.889,0-11.076-2.857-14.36-7.228L36.174,44.938C36.651,46.56,36.994,48.227,36.994,49.998z"/>
</svg>
